{"accessors":[{"bufferView":3,"componentType":5126,"count":1861,"max":[0.7126619219779968,1.670220136642456,0.1457885354757309],"min":[-0.7126619815826416,0.0000439852119598072,-0.22262665629386902],"type":"VEC3"},{"bufferView":3,"byteOffset":22332,"componentType":5126,"count":1861,"max":[0.9999958872795105,0.996439516544342,0.999999463558197],"min":[-0.9999958872795105,-0.9997484683990479,-0.9997453689575195],"type":"VEC3"},{"bufferView":2,"componentType":5126,"count":1861,"max":[0.9919432401657104,0.9920195937156677],"min":[0.01211535930633545,0.017740309238433838],"type":"VEC2"},{"bufferView":1,"componentType":5125,"count":8784,"type":"SCALAR"},{"bufferView":3,"byteOffset":44664,"componentType":5126,"count":500,"max":[0.10384393483400345,1.8189278841018677,0.11395476758480072],"min":[-0.10454799979925156,1.567964792251587,-0.16395364701747894],"type":"VEC3"},{"bufferView":3,"byteOffset":50664,"componentType":5126,"count":500,"max":[0.9993410706520081,0.9536784291267395,0.9995007514953613],"min":[-0.9993409514427185,-0.9985526204109192,-0.9985432624816895],"type":"VEC3"},{"bufferView":2,"byteOffset":14888,"componentType":5126,"count":500,"max":[0.9974754452705383,0.6359102725982666],"min":[0.7083239555358887,0.00566554069519043],"type":"VEC2"},{"bufferView":1,"byteOffset":35136,"componentType":5125,"count":1890,"type":"SCALAR"},{"bufferView":3,"byteOffset":56664,"componentType":5126,"count":823,"max":[0.1420191079378128,1.925794005393982,0.1225699856877327],"min":[-0.14610138535499573,1.6011509895324707,-0.16684547066688538],"type":"VEC3"},{"bufferView":3,"byteOffset":66540,"componentType":5126,"count":823,"max":[0.9996114373207092,0.9996817111968994,0.9993374347686768],"min":[-0.9998477697372437,-0.9979180097579956,-0.9982776641845703],"type":"VEC3"},{"bufferView":2,"byteOffset":18888,"componentType":5126,"count":823,"max":[0.6937559843063354,0.5773053169250488],"min":[0.010154067538678646,0.009168028831481934],"type":"VEC2"},{"bufferView":1,"byteOffset":42696,"componentType":5125,"count":2580,"type":"SCALAR"},{"bufferView":3,"byteOffset":76416,"componentType":5126,"count":61,"max":[-0.014568112790584564,1.7593932151794434,-0.07859841734170914],"min":[-0.07557180523872375,1.6983892917633057,-0.12029004096984863],"type":"VEC3"},{"bufferView":3,"byteOffset":77148,"componentType":5126,"count":61,"max":[0.9996074438095093,0.9996075630187988,0.028017785400152206],"min":[-0.9996074438095093,-0.9996075630187988,-1],"type":"VEC3"},{"bufferView":2,"byteOffset":25472,"componentType":5126,"count":61,"max":[0.8975446224212646,0.8975143432617188],"min":[0.10251641273498535,0.1024848222732544],"type":"VEC2"},{"bufferView":1,"byteOffset":53016,"componentType":5125,"count":324,"type":"SCALAR"},{"bufferView":3,"byteOffset":77880,"componentType":5126,"count":61,"max":[0.07557180523872375,1.7593932151794434,-0.07859841734170914],"min":[0.014568112790584564,1.6983892917633057,-0.12029004096984863],"type":"VEC3"},{"bufferView":3,"byteOffset":78612,"componentType":5126,"count":61,"max":[0.999607503414154,0.9996076822280884,0.028017038479447365],"min":[-0.9996074438095093,-0.9996076822280884,-1],"type":"VEC3"},{"bufferView":2,"byteOffset":25960,"componentType":5126,"count":61,"max":[0.8975498676300049,0.8975143432617188],"min":[0.10252191126346588,0.1024848222732544],"type":"VEC2"},{"bufferView":1,"byteOffset":54312,"componentType":5125,"count":324,"type":"SCALAR"},{"bufferView":3,"byteOffset":79344,"componentType":5126,"count":2120,"max":[0.9032164812088013,1.8083250522613525,0.08020799607038498],"min":[-0.9032166600227356,1.4821808338165283,-0.15925079584121704],"type":"VEC3"},{"bufferView":3,"byteOffset":104784,"componentType":5126,"count":2120,"max":[0.999789834022522,0.9999579787254333,0.9999925494194031],"min":[-0.9997898936271667,-0.999952495098114,-0.99998939037323],"type":"VEC3"},{"bufferView":2,"byteOffset":26448,"componentType":5126,"count":2120,"max":[0.9953845739364624,0.993890643119812],"min":[0.0030471011996269226,0.017169296741485596],"type":"VEC2"},{"bufferView":1,"byteOffset":55608,"componentType":5125,"count":10038,"type":"SCALAR"},{"bufferView":5,"componentType":5126,"count":76,"max":[1,0,0,0,0,1,0,0,0,0,1,0,0.8725306987762451,0,0.14140000939369202,1],"min":[1,0,0,0,0,1,0,0,0,0,1,0,-0.8725308775901794,-1.7529953718185425,-0.06982401758432388,1],"type":"MAT4"},{"bufferView":0,"componentType":5123,"count":1861,"type":"VEC4"},{"bufferView":4,"componentType":5126,"count":1861,"max":[1,0.5,0,0],"min":[0.5,0,0,0],"type":"VEC4"},{"bufferView":0,"byteOffset":14888,"componentType":5123,"count":500,"type":"VEC4"},{"bufferView":4,"byteOffset":29776,"componentType":5126,"count":500,"max":[1,0.5,0,0],"min":[0.5,0,0,0],"type":"VEC4"},{"bufferView":0,"byteOffset":18888,"componentType":5123,"count":823,"type":"VEC4"},{"bufferView":4,"byteOffset":37776,"componentType":5126,"count":823,"max":[1,0.5,0,0],"min":[0.5,0,0,0],"type":"VEC4"},{"bufferView":0,"byteOffset":25472,"componentType":5123,"count":61,"type":"VEC4"},{"bufferView":4,"byteOffset":50944,"componentType":5126,"count":61,"max":[1,0,0,0],"min":[1,0,0,0],"type":"VEC4"},{"bufferView":0,"byteOffset":25960,"componentType":5123,"count":61,"type":"VEC4"},{"bufferView":4,"byteOffset":51920,"componentType":5126,"count":61,"max":[1,0,0,0],"min":[1,0,0,0],"type":"VEC4"},{"bufferView":0,"byteOffset":26448,"componentType":5123,"count":2120,"type":"VEC4"},{"bufferView":4,"byteOffset":52896,"componentType":5126,"count":2120,"max":[1,0.5,0.2800000011920929,0.14000000059604645],"min":[0.36000001430511475,0,0,0],"type":"VEC4"}],"asset":{"extras":{"author":"limboautomata (https://sketchfab.com/limboautomata)","license":"CC-BY-4.0 (http://creativecommons.org/licenses/by/4.0/)","source":"https://sketchfab.com/3d-models/tokyo-ghoul-kaneki-ken-7f489e24e6424451b2d206f82647eef2","title":"Tokyo ghoul - Kaneki ken"},"generator":"Sketchfab-15.12.0","version":"2.0"},"bufferViews":[{"buffer":0,"byteLength":43408,"byteStride":8,"name":"shortBufferViews","target":34962},{"buffer":0,"byteLength":95760,"byteOffset":43408,"name":"floatBufferViews","target":34963},{"buffer":0,"byteLength":43408,"byteOffset":139168,"byteStride":8,"name":"floatBufferViews","target":34962},{"buffer":0,"byteLength":130224,"byteOffset":182576,"byteStride":12,"name":"floatBufferViews","target":34962},{"buffer":0,"byteLength":86816,"byteOffset":312800,"byteStride":16,"name":"floatBufferViews","target":34962},{"buffer":0,"byteLength":4864,"byteOffset":399616,"name":"floatBufferViews"}],"buffers":[{"byteLength":404480,"uri":"data:application/octet-stream;base64,"}],"images":[{"uri":"data:application/octet-stream;base64,"},{"uri":"data:application/octet-stream;base64,"},{"uri":"data:application/octet-stream;base64,"}],"materials":[{"name":"m_body_TRB","pbrMetallicRoughness":{"baseColorTexture":{"index":0},"metallicFactor":0,"roughnessFactor":0.9}},{"name":"m_mask_TRB","pbrMetallicRoughness":{"baseColorTexture":{"index":1},"metallicFactor":0,"roughnessFactor":0.9}},{"name":"m_heir_TRB","pbrMetallicRoughness":{"baseColorTexture":{"index":1},"metallicFactor":0,"roughnessFactor":0.9}},{"name":"m_eye_TRC","pbrMetallicRoughness":{"baseColorTexture":{"index":2},"metallicFactor":0,"roughnessFactor":0.9}},{"name":"m_eye_TRS","pbrMetallicRoughness":{"baseColorTexture":{"index":2},"metallicFactor":0,"roughnessFactor":0.9}},{"name":"m_skin_TRA","pbrMetallicRoughness":{"baseColorTexture":{"index":1},"metallicFactor":0,"roughnessFactor":0.9}}],"meshes":[{"name":"Object_0","primitives":[{"attributes":{"JOINTS_0":25,"NORMAL":1,"POSITION":0,"TEXCOORD_0":2,"WEIGHTS_0":26},"indices":3,"material":0,"mode":4}]},{"name":"Object_1","primitives":[{"attributes":{"JOINTS_0":27,"NORMAL":5,"POSITION":4,"TEXCOORD_0":6,"WEIGHTS_0":28},"indices":7,"material":1,"mode":4}]},{"name":"Object_2","primitives":[{"attributes":{"JOINTS_0":29,"NORMAL":9,"POSITION":8,"TEXCOORD_0":10,"WEIGHTS_0":30},"indices":11,"material":2,"mode":4}]},{"name":"Object_3","primitives":[{"attributes":{"JOINTS_0":31,"NORMAL":13,"POSITION":12,"TEXCOORD_0":14,"WEIGHTS_0":32},"indices":15,"material":3,"mode":4}]},{"name":"Object_4","primitives":[{"attributes":{"JOINTS_0":33,"NORMAL":17,"POSITION":16,"TEXCOORD_0":18,"WEIGHTS_0":34},"indices":19,"material":4,"mode":4}]},{"name":"Object_5","primitives":[{"attributes":{"JOINTS_0":35,"NORMAL":21,"POSITION":20,"TEXCOORD_0":22,"WEIGHTS_0":36},"indices":23,"material":5,"mode":4}]}],"nodes":[{"children":[1],"matrix":[1,0,0,0,0,2.220446049250313e-16,-1,0,0,1,2.220446049250313e-16,0,0,0,0,1],"name":"Sketchfab_model"},{"children":[2],"name":"root"},{"children":[3],"matrix":[1,0,0,0,0,2.220446049250313e-16,1,0,0,-1,2.220446049250313e-16,0,0,0,0,1],"name":"GLTF_SceneRootNode"},{"children":[4],"name":"g00112_0"},{"children":[5],"name":"Chr_root_12"},{"children":[6,94,97,100,103,106,109,92,95,98,101,104,107],"name":"GLTF_created_0"},{"children":[7],"name":"GLTF_created_0_rootJoint"},{"children":[8,12,88],"name":"Chr_Waist_13","translation":[0,1.1097837686538696,-0.0025877216830849648]},{"children":[9],"name":"Chr_LUpLeg_14","translation":[-0.10426346957683563,-0.14337694644927979,0.0025877298321574926]},{"children":[10],"name":"Chr_LLeg_15","translation":[0,-0.4113394618034363,-0.02386937104165554]},{"children":[11],"name":"Chr_LFoot_16","translation":[0,-0.4420132040977478,0.026125825941562653]},{"name":"Chr_LToeBase_17","translation":[0,-0.09631943702697754,-0.13878069818019867]},{"children":[13],"name":"Chr_Spine1_22","translation":[0,0.045122742652893066,0]},{"children":[14,38,62],"name":"Chr_Spine2_23","translation":[0,0.1274641752243042,-0.0050109499134123325]},{"children":[15],"name":"Chr_LShoulder_24","translation":[-0.05998070165514946,0.24029874801635742,0.022700907662510872]},{"children":[16],"name":"Chr_LArm_25","translation":[-0.12037275731563568,-0.005966663360595703,1.825392246246338e-7]},{"children":[17],"name":"Chr_LForeArm_26","translation":[-0.26942312717437744,2.384185791015625e-7,0.017640141770243645]},{"children":[18,22,26,30,34],"name":"Chr_LHand_27","translation":[-0.2624722123146057,-0.0006505250930786133,-0.013534123077988625]},{"children":[19],"name":"Chr_LHandIndex_28","translation":[-0.08820796012878418,0.00028896331787109375,-0.03576350212097168]},{"children":[20],"name":"Chr_LHandIndex1_29","translation":[-0.031948745250701904,-0.0006742477416992188,-0.01334226131439209]},{"children":[21],"name":"Chr_LHandIndex2_30","translation":[-0.01915442943572998,-0.0004044771194458008,-0.007999159395694733]},{"matrix":[1,0,0,0,0,1,0,0,0,0,1,0,-0.027535080909729004,-0.0005810260772705078,-0.01149904727935791,1],"name":"Chr_LHandIndex3_31"},{"children":[23],"name":"Chr_LHandMiddle_32","translation":[-0.09222948551177979,0.0025453567504882812,-0.01352759636938572]},{"children":[24],"name":"Chr_LHandMiddle1_33","translation":[-0.04059094190597534,-0.000008225440979003906,0.000710831955075264]},{"children":[25],"name":"Chr_LHandMiddle2_34","translation":[-0.027461469173431396,-0.000005364418029785156,0.00048091448843479156]},{"matrix":[1,0,0,0,0,1,0,0,0,0,1,0,-0.024883747100830078,-0.000004887580871582031,0.00043576210737228394,1],"name":"Chr_LHandMiddle3_35"},{"children":[27],"name":"Chr_LHandPinky_36","translation":[-0.08172816038131714,-0.006855368614196777,0.029085487127304077]},{"children":[28],"name":"Chr_LHandPinky1_37","translation":[-0.025774478912353516,0.0006159543991088867,0.013375192880630493]},{"children":[29],"name":"Chr_LHandPinky2_38","translation":[-0.015714645385742188,0.00037550926208496094,0.008154898881912231]},{"matrix":[1,0,0,0,0,1,0,0,0,0,1,0,-0.012699246406555176,0.0003033876419067383,0.006590008735656738,1],"name":"Chr_LHandPinky3_39"},{"children":[31],"name":"Chr_LHandRing_40","translation":[-0.08738398551940918,0.0005409717559814453,0.007021764293313026]},{"children":[32],"name":"Chr_LHandRing1_41","translation":[-0.03495293855667114,0.0003603696823120117,0.008254338055849075]},{"children":[33],"name":"Chr_LHandRing2_42","translation":[-0.024505674839019775,0.00025260448455810547,0.005787160247564316]},{"matrix":[1,0,0,0,0,1,0,0,0,0,1,0,-0.024314701557159424,0.0002505779266357422,0.005742054432630539,1],"name":"Chr_LHandRing3_43"},{"children":[35],"name":"Chr_LHandThumb_44","translation":[-0.029229700565338135,-0.012276887893676758,-0.029988190159201622]},{"children":[36],"name":"Chr_LHandThumb1_45","translation":[-0.027295291423797607,-0.0027475357055664062,-0.023651273921132088]},{"children":[37],"name":"Chr_LHandThumb2_46","translation":[-0.01819443702697754,-0.0017113685607910156,-0.012886425480246544]},{"matrix":[1,0,0,0,0,1,0,0,0,0,1,0,-0.022633373737335205,-0.002249598503112793,-0.01892545260488987,1],"name":"Chr_LHandThumb3_47"},{"children":[39],"name":"Chr_RShoulder_74","translation":[0.05998069420456886,0.24029922485351562,0.022700874134898186]},{"children":[40],"name":"Chr_RArm_75","translation":[0.12037229537963867,-0.005969882011413574,2.0116567611694336e-7]},{"children":[41],"name":"Chr_RForeArm_76","translation":[0.2694239914417267,0,0.01764010824263096]},{"children":[42,46,50,54,58],"name":"Chr_RHand_77","translation":[0.262472003698349,-0.0006499290466308594,-0.013534082099795341]},{"children":[43],"name":"Chr_RHandIndex_78","translation":[0.08820796012878418,0.0002900362014770508,-0.03576349467039108]},{"children":[44],"name":"Chr_RHandIndex1_79","translation":[0.0319480299949646,-0.0006700754165649414,-0.013342306017875671]},{"children":[45],"name":"Chr_RHandIndex2_80","translation":[0.019155025482177734,-0.00040435791015625,-0.007999464869499207]},{"matrix":[1,0,0,0,0,1,0,0,0,0,1,0,0.027534961700439453,-0.0005799531936645508,-0.011498995125293732,1],"name":"Chr_RHandIndex3_81"},{"children":[47],"name":"Chr_RHandMiddle_82","translation":[0.0922289490699768,0.0025500059127807617,-0.013527629896998405]},{"children":[48],"name":"Chr_RHandMiddle1_83","translation":[0.04059094190597534,-0.000010013580322265625,0.0007108505815267563]},{"children":[49],"name":"Chr_RHandMiddle2_84","translation":[0.027462005615234375,-0.000010013580322265625,0.00048091821372509]},{"matrix":[1,0,0,0,0,1,0,0,0,0,1,0,0.024882972240447998,0,0.0004357658326625824,1],"name":"Chr_RHandMiddle3_85"},{"children":[51],"name":"Chr_RHandPinky_86","translation":[0.08172798156738281,-0.006859898567199707,0.029085498303174973]},{"children":[52],"name":"Chr_RHandPinky1_87","translation":[0.025774002075195312,0.0006158351898193359,0.013374917209148407]},{"children":[53],"name":"Chr_RHandPinky2_88","translation":[0.015714943408966064,0.0003800392150878906,0.00815490260720253]},{"matrix":[1,0,0,0,0,1,0,0,0,0,1,0,0.012698948383331299,0.0002999305725097656,0.006589978933334351,1],"name":"Chr_RHandPinky3_89"},{"children":[55],"name":"Chr_RHandRing_90","translation":[0.0873839259147644,0.0005400180816650391,0.007021697238087654]},{"children":[56],"name":"Chr_RHandRing1_91","translation":[0.03495299816131592,0.0003600120544433594,0.008254405111074448]},{"children":[57],"name":"Chr_RHandRing2_92","translation":[0.02450507879257202,0.00025272369384765625,0.005787458270788193]},{"matrix":[1,0,0,0,0,1,0,0,0,0,1,0,0.024309992790222168,0.0002498626708984375,0.005740936845541,1],"name":"Chr_RHandRing3_93"},{"children":[59],"name":"Chr_RHandThumb_94","translation":[0.029230058193206787,-0.012279987335205078,-0.029988208785653114]},{"children":[60],"name":"Chr_RHandThumb1_95","translation":[0.02729499340057373,-0.0027500391006469727,-0.02365129254758358]},{"children":[61],"name":"Chr_RHandThumb2_96","translation":[0.018193840980529785,-0.0017099380493164062,-0.012886399403214455]},{"matrix":[1,0,0,0,0,1,0,0,0,0,1,0,0.02263408899307251,-0.0022499561309814453,-0.01892547868192196,1],"name":"Chr_RHandThumb3_97"},{"children":[63],"name":"Chr_Neck_48","translation":[0,0.30281078815460205,0.01910499669611454]},{"children":[64,70,71,72,73,74,75,76,77,78,79,80,81,82,83,84,85,86,87],"name":"Chr_Head_49","translation":[-8.687496147073695e-17,0.08980870246887207,-0.019727902486920357]},{"children":[65,66,67,68,69],"name":"Chr_Jaw_50","translation":[-8.88178234411668e-18,0.021507620811462402,-0.026367230340838432]},{"name":"Chr_mask_Lower_53","translation":[1.7888779980639188e-16,-0.04941391944885254,-0.09810787439346313]},{"name":"Chr_L_LowerMiddleLip_51","translation":[-0.008220802061259747,-0.05003237724304199,-0.0919593870639801]},{"name":"Chr_L_LowerOutLip_52","translation":[-0.020843394100666046,-0.04877734184265137,-0.08167649805545807]},{"name":"Chr_R_LowerMiddleLip_54","translation":[0.008220000192523003,-0.05003237724304199,-0.0919593870639801]},{"name":"Chr_R_LowerOutLip_55","translation":[0.020840000361204147,-0.048783302307128906,-0.0816769152879715]},{"name":"Chr_mask_slider_64","translation":[0.049621861428022385,-0.013575911521911621,-0.10800968110561371]},{"name":"Chr_mask_Upper_65","translation":[8.687496147073695e-17,-0.02581202983856201,-0.12528342008590698]},{"name":"Chr_L_InnerBrow_57","translation":[-0.014759998768568039,0.07477140426635742,-0.13317842781543732]},{"name":"Chr_L_Lower_eyelid_58","translation":[-0.044857509434223175,0.038317203521728516,-0.11081455647945404]},{"name":"Chr_L_MiddlerBrow_59","translation":[-0.044929999858140945,0.07800519466400146,-0.12854434549808502]},{"name":"Chr_L_OuterBrow_60","translation":[-0.0757099911570549,0.07733142375946045,-0.10754841566085815]},{"name":"Chr_L_Upper_eyelid_61","translation":[-0.04623132571578026,0.06283724308013916,-0.1160576194524765]},{"name":"Chr_L_UpperMiddleLip_62","translation":[-0.007841694168746471,-0.022674560546875,-0.12353560328483582]},{"name":"Chr_L_UpperOutLip_63","translation":[-0.020807230845093727,-0.02429211139678955,-0.11048981547355652]},{"name":"Chr_R_InnerBrow_67","translation":[0.014759998768568039,0.07477140426635742,-0.1331784427165985]},{"name":"Chr_R_Lower_eyelid_68","translation":[0.044857509434223175,0.038317203521728516,-0.11081455647945404]},{"name":"Chr_R_MiddlerBrow_69","translation":[0.044929999858140945,0.07800519466400146,-0.12854434549808502]},{"name":"Chr_R_OuterBrow_70","translation":[0.0757099911570549,0.07733142375946045,-0.10754844546318054]},{"name":"Chr_R_Upper_eyelid_71","translation":[0.04623132571578026,0.06283724308013916,-0.1160576194524765]},{"name":"Chr_R_UpperMiddleLip_72","translation":[0.007839999161660671,-0.022674560546875,-0.12353560328483582]},{"name":"Chr_R_UpperOutLip_73","translation":[0.020810000598430634,-0.024289965629577637,-0.11048997938632965]},{"name":"Chr_L_eye_56","translation":[-0.0450499951839447,0.05387723445892334,-0.08058465272188187]},{"name":"Chr_R_eye_66","translation":[0.0450499951839447,0.05387723445892334,-0.08058465272188187]},{"children":[89],"name":"Chr_RUpLeg_18","translation":[0.10426299273967743,-0.14337652921676636,0.0025877298321574926]},{"children":[90],"name":"Chr_RLeg_19","translation":[0,-0.41134029626846313,-0.023869408294558525]},{"children":[91],"name":"Chr_RFoot_20","translation":[0,-0.4420129656791687,0.02612588368356228]},{"name":"Chr_RToeBase_21","translation":[0,-0.09631913900375366,-0.13878045976161957]},{"children":[93],"name":"body_0_3_correction"},{"name":"body_0_3"},{"mesh":0,"name":"Object_94","skin":0},{"children":[96],"name":"eqp_0_5_correction"},{"name":"eqp_0_5"},{"mesh":1,"name":"Object_97","skin":0},{"children":[99],"name":"eqp_1_6_correction"},{"name":"eqp_1_6"},{"mesh":2,"name":"Object_100","skin":0},{"children":[102],"name":"eye_0_8_correction"},{"name":"eye_0_8"},{"mesh":3,"name":"Object_103","skin":0},{"children":[105],"name":"eye_1_9_correction"},{"name":"eye_1_9"},{"mesh":4,"name":"Object_106","skin":0},{"children":[108],"name":"skin_0_11_correction"},{"name":"skin_0_11"},{"mesh":5,"name":"Object_109","skin":0}],"samplers":[{"magFilter":9729,"minFilter":9987,"wrapS":10497,"wrapT":10497}],"scene":0,"scenes":[{"name":"Sketchfab_Scene","nodes":[0]}],"skins":[{"inverseBindMatrices":24,"joints":[6,7,8,9,10,11,12,13,14,15,16,17,18,19,20,22,23,24,26,27,28,30,31,32,34,35,36,38,39,40,41,42,43,44,46,47,48,50,51,52,54,55,56,58,59,60,62,63,64,65,66,67,68,69,70,71,72,73,74,75,76,77,78,79,80,81,82,83,84,85,86,87,88,89,90,91],"skeleton":6}],"textures":[{"sampler":0,"source":0},{"sampler":0,"source":1},{"sampler":0,"source":2}]}